<svg id="Layer_1" data-name="Layer 1" xmlns="http://www.w3.org/2000/svg" viewBox="0 0 468.11 179.05"><defs><style>.cls-1{fill:#fff;}</style></defs><title>GRIFF_INT1_STD_REV</title><polygon class="cls-1" points="79.13 111.77 97.75 65.32 97.75 0 79.13 46.46 79.13 111.77"/><polygon class="cls-1" points="125.89 22.14 125.89 87.42 83.94 114.29 110.79 73.63 110.79 31.8 125.89 22.14"/><polygon class="cls-1" points="86.54 119.07 136 99.13 136 48.72 150.03 48.72 150.03 119.07 86.54 119.07"/><polygon class="cls-1" points="70.9 111.77 52.28 65.32 52.28 0 70.9 46.46 70.9 111.77"/><polygon class="cls-1" points="24.14 22.14 24.14 87.42 66.09 114.29 39.24 73.63 39.24 31.8 24.14 22.14"/><polygon class="cls-1" points="63.49 119.07 14.03 99.13 14.03 48.72 0 48.72 0 119.07 63.49 119.07"/><path class="cls-1" d="M372.78,34.52c0,4.17,3.94,7.54,8.8,7.54s8.78-3.37,8.78-7.54S386.42,27,381.58,27,372.78,30.35,372.78,34.52Z" transform="translate(-14.1 -18.88)"/><path class="cls-1" d="M335.78,33.82c-1.44-.16-3.2-.29-3.92-.29-7.62,0-9.37,2.24-9.37,7v6.87H339.6V44.15c0-6.64.76-11.76,6.64-15.27C351.64,25.66,360,25.2,366,25.2c1.39,0,3.54.09,5.7.27a12,12,0,0,0-4.09,8.4c-1.35-.18-2.89-.34-3.58-.34-7.3,0-8.06,3-8.06,7v6.87h33.52V91h-16.4V56.14H356V91H339.6V56.23H322.49V91H306.07V56.23h-6.35l0-8.82h6.33V44.15c0-6.64.78-11.76,6.64-15.27,5.4-3.22,15.45-3.89,23.18-3.89,2.51,0,4.63.06,6.5.2A16.56,16.56,0,0,0,335.78,33.82Z" transform="translate(-14.1 -18.88)"/><path class="cls-1" d="M268.23,46.17c-6.05,0-8.84,5.57-10.24,10.49V47.41h-16.4V91H258V70c0-6.71,3.71-12.76,8.83-12.76a22.66,22.66,0,0,1,4.92.76V46.47A21.48,21.48,0,0,0,268.23,46.17Z" transform="translate(-14.1 -18.88)"/><rect class="cls-1" x="262.65" y="28.53" width="16.4" height="43.62"/><path class="cls-1" d="M276.19,34.52c0,4.17,3.93,7.54,8.78,7.54s8.79-3.37,8.79-7.54S289.82,27,285,27,276.19,30.35,276.19,34.52Z" transform="translate(-14.1 -18.88)"/><path class="cls-1" d="M431.9,82a38.32,38.32,0,0,1-6.63.59c-7.86,0-7.76-5.44-7.76-11.6V56.23H431.9V47.41H417.51V27.58H401.1V47.41h-6.35v8.82h6.34V73c0,6.64.76,11.77,6.62,15.27,5.41,3.23,12,3.69,18.13,3.69,1.28,0,3.44-.08,6-.24Z" transform="translate(-14.1 -18.88)"/><path class="cls-1" d="M479,51.67c-3.5-4-8.15-5.5-13.37-5.5-4.17,0-8.72.87-11.85,4V27.6h-16.4V91h16.4V63.85c0-4.52.94-7.81,5.68-7.81,4.21,0,5.8,2.22,5.8,9.23V91l16.4,0V65C481.69,60.4,482.26,55.28,479,51.67Z" transform="translate(-14.1 -18.88)"/><path class="cls-1" d="M234.09,40.77c-5.35-2.69-11.92-3.69-17.3-3.69-13.78,0-21.1,8-21.1,19.55,0,11.8,4.13,25.41,18.05,25.41a17.15,17.15,0,0,0,3.84-.29V57.49h16.51V89.05a77.93,77.93,0,0,1-20.45,3c-20,0-36.11-11.31-36.11-32.6,0-21.62,15.49-33.52,39.5-33.52a89.28,89.28,0,0,1,17.08,2.6Z" transform="translate(-14.1 -18.88)"/><path class="cls-1" d="M366.2,109.85a6.35,6.35,0,0,1-2,4.93,10.14,10.14,0,0,1-5.55,2.39,54.1,54.1,0,0,1-6.13.23h-6.18V103h9.39a28.7,28.7,0,0,1,4.9.29,6,6,0,0,1,3.33,1.54A6.6,6.6,0,0,1,366.2,109.85Zm7.33,28.1-6.37-13.3c-1.27-2.63-3.37-4.81-5-5a12.3,12.3,0,0,0,5.37-2.58,9.18,9.18,0,0,0,2.8-7,10.46,10.46,0,0,0-3.41-8,10.62,10.62,0,0,0-5.65-2.49,57.23,57.23,0,0,0-6.38-.24h-12.8V138h4.18V121h8.26c3.22,0,5.42.49,6.62,1.62a11.52,11.52,0,0,1,1.85,2.67c.19.38.67,1.35,1.42,2.9l4.66,9.81Z" transform="translate(-14.1 -18.88)"/><path class="cls-1" d="M207.32,134.9c-2.54,2.46-6.92,3.68-11.37,3.68s-8.74-1.26-11.36-3.8a11.74,11.74,0,0,1-3.4-7,61.48,61.48,0,0,1-.3-8V99.4h4.17v24.25q0,6.21,2.39,8.53c1.9,1.78,5.3,2.68,8.68,2.68,3.1,0,6.37-.8,8.06-2.39s2.59-4.11,2.72-7.56c0-.72,0-2.06,0-4.06V99.4H211v21.14a66.34,66.34,0,0,1-.3,7.68A12,12,0,0,1,207.32,134.9Z" transform="translate(-14.1 -18.88)"/><path class="cls-1" d="M247,138l-23.5-31.64.06,31.64H219.5V99.4H224l23.8,32.12-.05-32.12h4.05V138Z" transform="translate(-14.1 -18.88)"/><path class="cls-1" d="M260.11,138V99.4h4.29V138Z" transform="translate(-14.1 -18.88)"/><path class="cls-1" d="M289.09,138h-4.77L269.57,99.4h4.79l12.46,33.79L299.57,99.4h4.5Z" transform="translate(-14.1 -18.88)"/><path class="cls-1" d="M308.47,138V99.4h26.47v3.69H312.65v12.73h20.13v3.63H312.65v14.7H336.1V138Z" transform="translate(-14.1 -18.88)"/><path class="cls-1" d="M399.5,105.79A11.16,11.16,0,0,0,395,103a14.48,14.48,0,0,0-4.63-.69c-2.86,0-4.89.52-6.49,1.74a5.39,5.39,0,0,0-2.3,4.49q0,3.5,5,5.8c2.16.82,4.49,1.63,6.64,2.44a21,21,0,0,1,5.89,3.31,9.24,9.24,0,0,1,3.29,7.08,10.56,10.56,0,0,1-3.27,8.15c-2.44,2.21-5.91,3.23-10.25,3.23a18.67,18.67,0,0,1-12.66-4.52l2.49-2.89a18.22,18.22,0,0,0,10.15,3.62c3.06,0,5.31-.47,6.88-1.83a7.08,7.08,0,0,0,2.43-5.56c0-2.13-1.16-4-3.64-5.52a54.12,54.12,0,0,0-6.83-2.93,27.79,27.79,0,0,1-7-3.51,8.38,8.38,0,0,1-3.16-6.79,8.74,8.74,0,0,1,3.47-7.14,14,14,0,0,1,9.05-2.79,19.56,19.56,0,0,1,6.16.9,15.13,15.13,0,0,1,6,3.68Z" transform="translate(-14.1 -18.88)"/><path class="cls-1" d="M409.63,138V99.4h4.29V138Z" transform="translate(-14.1 -18.88)"/><path class="cls-1" d="M435.11,103.09V138H431V103.09H419.17V99.4h27.08v3.69Z" transform="translate(-14.1 -18.88)"/><path class="cls-1" d="M467.4,122.34V138h-4.11V122.34L448.36,99.4h5L465.49,118,477.31,99.4h4.9Z" transform="translate(-14.1 -18.88)"/><path class="cls-1" d="M186,193.36l-.05-.07h-.07c-4.14-.59-8.32-4.74-8.32-11.51,0-7,4.32-11.89,10.51-11.89s10.3,4.82,10.3,11.72c0,4.94-2.34,11-8.93,11.68l-.33,0,.21.25c1.28,1.54,3.54,2.35,6.55,2.35a14.75,14.75,0,0,0,2.16-.18h.09c0,.27.25,1.61.29,1.86a14.21,14.21,0,0,1-3.33.35C191,197.94,188,196.44,186,193.36Zm-5.6-11.66c0,5.53,3.21,9.54,7.63,9.54,4.63,0,7.5-3.73,7.5-9.75,0-5.58-3.08-9.33-7.67-9.33S180.37,175.9,180.37,181.7Z" transform="translate(-14.1 -18.88)"/><path class="cls-1" d="M215.78,176.67v16.44H213.5v-1.4l-.34.23a9.19,9.19,0,0,1-5.07,1.62,5.92,5.92,0,0,1-4-1.33c-1.55-1.55-1.55-3.32-1.55-6v-9.57h2.6V186c0,2.2,0,3.59,1,4.5a3.56,3.56,0,0,0,2.48.88,9.53,9.53,0,0,0,4.51-1.48l.08-.06v-13.2Z" transform="translate(-14.1 -18.88)"/><path class="cls-1" d="M219.91,185c0-5.24,3.07-8.76,7.63-8.76,4.21,0,6.73,3.07,6.73,8.21l-.06,1.07h-11.7v.26a5.73,5.73,0,0,0,1.52,4.09,5.33,5.33,0,0,0,3.93,1.48,9.49,9.49,0,0,0,4.68-1.25l1,1.72a10.58,10.58,0,0,1-5.88,1.68C223,193.49,219.91,190.16,219.91,185Zm2.64-1.64,0,.19h9.25v-.18c0-1.9-.89-5.13-4.21-5.13C224.81,178.23,222.79,180.28,222.55,183.35Z" transform="translate(-14.1 -18.88)"/><path class="cls-1" d="M237.53,185c0-5.24,3.06-8.76,7.63-8.76,4.21,0,6.72,3.07,6.72,8.21,0,0,0,.89,0,1.07h-11.7v.26a5.73,5.73,0,0,0,1.52,4.09,5.31,5.31,0,0,0,3.92,1.48,9.47,9.47,0,0,0,4.69-1.25c.13.24.82,1.5,1,1.72a10.64,10.64,0,0,1-5.88,1.68C240.59,193.49,237.53,190.16,237.53,185Zm2.63-1.64v.19h9.24v-.18c0-1.9-.88-5.13-4.2-5.13C242.43,178.23,240.41,180.28,240.16,183.35Z" transform="translate(-14.1 -18.88)"/><path class="cls-1" d="M258.57,177.89l.09-.06a9.2,9.2,0,0,1,5-1.6,5.33,5.33,0,0,1,3.9,1.4c1.54,1.53,1.61,3.16,1.61,5.91v9.57h-2.59v-9.37c0-2.19-.05-3.58-.95-4.49a3.62,3.62,0,0,0-2.48-.88,9.28,9.28,0,0,0-4.52,1.49l-.07,0v13.2H256V176.67h2.28v1.4Z" transform="translate(-14.1 -18.88)"/><path class="cls-1" d="M281.51,188.81c0-1.65-1.74-2.38-3.57-3.16-2.22-.94-4.72-2-4.72-4.85,0-2.69,2.33-4.57,5.68-4.57a9.18,9.18,0,0,1,5.08,1.36l-1,1.68a8.35,8.35,0,0,0-3.92-1.07c-2,0-3.26,1-3.26,2.42s1.71,2.25,3.52,3c2.28,1,4.87,2.07,4.87,5,0,3.41-3.09,5-6,5a10.41,10.41,0,0,1-5.53-1.54l.95-1.76a8.65,8.65,0,0,0,4.4,1.23C280.08,191.49,281.51,190.35,281.51,188.81Z" transform="translate(-14.1 -18.88)"/><path class="cls-1" d="M290.9,168.46v24.65h-2.6V168.46Z" transform="translate(-14.1 -18.88)"/><path class="cls-1" d="M301.72,176.23a6.71,6.71,0,0,1,4.74,1.64c1.21,1.22,1.29,2.65,1.29,4.87v10.37h-2.28v-1.39l-.4.24a9.18,9.18,0,0,1-4.91,1.5,4.86,4.86,0,0,1-5.23-5c0-5.52,7.07-5.52,9.39-5.52h.94v-1.24a3.12,3.12,0,0,0-.74-2.49,4.25,4.25,0,0,0-3.08-.91,9.31,9.31,0,0,0-4.53,1.26l-.93-1.71A10.23,10.23,0,0,1,301.72,176.23Zm3.36,8.56h-.86c-3,0-5,.49-6,1.5a2.72,2.72,0,0,0-.81,2.06c0,1.86,1.37,3.06,3.5,3.06a8.91,8.91,0,0,0,4.05-1.15l.32-.16v-5.31Z" transform="translate(-14.1 -18.88)"/><path class="cls-1" d="M315.06,177.89l.1-.06a9.17,9.17,0,0,1,5-1.6,5.27,5.27,0,0,1,3.91,1.4c1.54,1.53,1.61,3.16,1.61,5.91v9.57h-2.6v-9.37c0-2.18,0-3.58-.95-4.49a3.6,3.6,0,0,0-2.48-.88,9.28,9.28,0,0,0-4.52,1.49l-.07,0v13.2h-2.59V176.67h2.28v1.4Z" transform="translate(-14.1 -18.88)"/><path class="cls-1" d="M344,168.46v24.65h-2.28v-1.53l-.32.27a6.91,6.91,0,0,1-4.57,1.64c-4.34,0-7.25-3.37-7.25-8.39s3.37-8.87,8-8.87a6.62,6.62,0,0,1,3.5.94l.32.2v-8.91ZM332.24,185.1c0,3.68,2.11,6.24,5.13,6.24a6.27,6.27,0,0,0,3.95-1.45l.1-.08V179.57l-.09-.07a5.58,5.58,0,0,0-3.45-1.13C334.46,178.37,332.24,181,332.24,185.1Z" transform="translate(-14.1 -18.88)"/><path class="cls-1" d="M350.2,190.78V191a7.39,7.39,0,0,1-2.8,5.75l-1.16-1a7.43,7.43,0,0,0,1.7-4.42v-.59Z" transform="translate(-14.1 -18.88)"/><path class="cls-1" d="M369.71,170.32c.08.23,8.17,22.33,8.33,22.79h-2.88l-2.11-6h-9.79l-2.12,6H358.4c.16-.46,8.18-22.56,8.26-22.79ZM368,173.39l-4,11.5h8.3l-4.16-12Z" transform="translate(-14.1 -18.88)"/><path class="cls-1" d="M394,176.67v16.44h-2.28v-1.4l-.35.23a9.16,9.16,0,0,1-5.06,1.62,5.93,5.93,0,0,1-4-1.33c-1.54-1.55-1.54-3.32-1.54-6v-9.57h2.59V186c0,2.2.05,3.59,1,4.5a3.54,3.54,0,0,0,2.48.88,9.42,9.42,0,0,0,4.5-1.48l.08-.06v-13.2Z" transform="translate(-14.1 -18.88)"/><path class="cls-1" d="M406.56,188.81c0-1.65-1.74-2.38-3.57-3.16-2.21-.94-4.72-2-4.72-4.85,0-2.69,2.34-4.57,5.68-4.57a9.11,9.11,0,0,1,5.08,1.36l-.94,1.68a8.4,8.4,0,0,0-3.93-1.07c-2,0-3.26,1-3.26,2.42s1.71,2.25,3.52,3c2.29,1,4.88,2.07,4.88,5,0,3.41-3.09,5-6,5A10.41,10.41,0,0,1,397.8,192l.95-1.76a8.66,8.66,0,0,0,4.41,1.23C405.13,191.49,406.56,190.35,406.56,188.81Z" transform="translate(-14.1 -18.88)"/><path class="cls-1" d="M417.2,172v4.71h5.17v2.08H417.2V188c0,1.58,0,3.36,2.64,3.36a6,6,0,0,0,2.22-.4c.09.26.56,1.54.65,1.77a7.28,7.28,0,0,1-3.39.82,5,5,0,0,1-3.66-1.24c-1.07-1.07-1.06-2.59-1.06-4.35v-9.19h-3v-2.08h3V172Z" transform="translate(-14.1 -18.88)"/><path class="cls-1" d="M428.75,178.79l0,0a6.83,6.83,0,0,1,5.25-2.53,4,4,0,0,1,1.59.23c-.07.25-.53,1.82-.61,2.07a6.43,6.43,0,0,0-1.11-.09,5.88,5.88,0,0,0-5,2.68l-.12.17v11.82h-2.6V176.67h2.29v2.51Z" transform="translate(-14.1 -18.88)"/><path class="cls-1" d="M443.9,176.23a6.68,6.68,0,0,1,4.73,1.64c1.17,1.18,1.3,2.44,1.3,4.87v10.37h-2.28v-1.39l-.39.24a9.21,9.21,0,0,1-4.92,1.5,4.87,4.87,0,0,1-5.24-5c0-5.52,7.08-5.52,9.4-5.52h.94v-1.24a3.13,3.13,0,0,0-.74-2.49,4.28,4.28,0,0,0-3.08-.91,9.31,9.31,0,0,0-4.53,1.26c-.14-.25-.81-1.5-.93-1.71A10.26,10.26,0,0,1,443.9,176.23Zm3.37,8.56h-.87c-3,0-5,.49-6,1.5a2.71,2.71,0,0,0-.81,2.06c0,1.86,1.37,3.06,3.5,3.06a8.79,8.79,0,0,0,4.05-1.15l.32-.16v-5.31Z" transform="translate(-14.1 -18.88)"/><path class="cls-1" d="M457.28,168.46v24.65h-2.59V168.46Z" transform="translate(-14.1 -18.88)"/><path class="cls-1" d="M461.94,171.16a1.63,1.63,0,1,1,1.62,1.62A1.6,1.6,0,0,1,461.94,171.16Z" transform="translate(-14.1 -18.88)"/><path class="cls-1" d="M464.88,176.67v16.44h-2.6V176.67Z" transform="translate(-14.1 -18.88)"/><path class="cls-1" d="M475.66,176.23a6.75,6.75,0,0,1,4.74,1.63c1.17,1.19,1.3,2.45,1.3,4.88v10.37h-2.28v-1.39l-.4.24a9.26,9.26,0,0,1-4.92,1.5,4.87,4.87,0,0,1-5.23-5c0-5.52,7.07-5.52,9.39-5.52h.94v-1.24a3.12,3.12,0,0,0-.74-2.49,4.25,4.25,0,0,0-3.07-.91,9.34,9.34,0,0,0-4.54,1.26l-.92-1.71A10.21,10.21,0,0,1,475.66,176.23Zm3.37,8.56h-.87c-3,0-5,.49-6,1.5a2.71,2.71,0,0,0-.82,2.06c0,1.86,1.38,3.06,3.5,3.06a9,9,0,0,0,4.07-1.16l.3-.15v-5.31Z" transform="translate(-14.1 -18.88)"/><rect class="cls-1" x="163.44" y="135.79" width="304.16" height="1.58"/></svg>